<?xml version="1.0" encoding="utf-8"?>
<!-- Generator: Adobe Illustrator 24.0.0, SVG Export Plug-In . SVG Version: 6.00 Build 0)  -->
<svg version="1.1" id="Layer_1" xmlns="http://www.w3.org/2000/svg" xmlns:xlink="http://www.w3.org/1999/xlink" x="0px" y="0px"
	 viewBox="0 0 65.3 64.6" style="enable-background:new 0 0 65.3 64.6;" xml:space="preserve">
<style type="text/css">
	.st0{fill:#2E2E2F;}
	.st1{fill:#F1F1F1;}
	.st2{fill:#E4E4E4;}
	.st3{fill:#EDEBEB;}
	.st4{fill:#BCBCBC;}
	.st5{fill:#E1E1E1;}
	.st6{fill:none;}
	.st7{fill:#DB4437;}
	.st8{fill:#DC493C;}
	.st9{fill:#D23F31;}
</style>
<g>
	<path class="st0" d="M52.9,0H12.4C5.6,0,0,5.6,0,12.4v40.4c0,6.9,5.6,12.4,12.4,12.4h40.4c6.9,0,12.4-5.6,12.4-12.4V12.4
		C65.3,5.6,59.7,0,52.9,0z"/>
	<path class="st1" d="M32.5,31.6c0.6,0.5,0.9,0.2,1.3-0.2c4.3-3.8,8.6-7.5,12.9-11.3c0.9-0.8,1.9-1.7,3-2.7c-11.2,0-22.1,0-33.1,0
		c0.1,0.1,0.1,0.2,0.2,0.3C22,22.3,27.3,27,32.5,31.6z"/>
</g>
<g>
	<path class="st2" d="M14.7,23.7c-0.1,0-0.2,0-0.3,0.1c0,0.3,0,0.6,0,0.8c0,7.3,0,14.5,0,21.8c0,1.1,0.3,1.4,1.2,1.3
		c2.4,0,4.9,0,7.4,0l8.7-6.8L14.7,23.7z"/>
	<path class="st3" d="M38.3,47.7l-6.7-6.8L23,47.7c3.6,0,7.2,0,10.7,0C35.2,47.7,36.8,47.7,38.3,47.7z"/>
</g>
<g>
	<path class="st4" d="M31.3,38.2c-5.4-4.7-10.7-9.4-16.1-14.1c-0.2-0.2-0.3-0.4-0.5-0.4l16.9,17.1l1.6-1.4
		C32.6,39.4,32.1,39,31.3,38.2z"/>
	<path class="st5" d="M35,38.2c-0.9,0.8-1.4,1.2-1.9,1.2l-1.6,1.4l6.8,6.9c3.8,0,7.5,0,11.3,0c0.6,0,1.1,0,1.1-1
		c0-7.4,0-14.9,0-22.7c-0.5,0.4-0.8,0.6-1.1,0.9C44.7,29.3,39.9,33.8,35,38.2z"/>
</g>
<g>
	<path class="st6" d="M32.5,31.6c0.6,0.5,0.9,0.2,1.3-0.2c4.3-3.8,8.6-7.5,12.9-11.3c0.9-0.8,1.8-1.7,3-2.7c-11.2,0-22.1,0-33.1,0
		c0.1,0.2,0.2,0.3,0.2,0.3C22,22.3,27.3,27,32.5,31.6z"/>
	<path class="st6" d="M31.3,38.3c-5.4-4.7-10.7-9.4-16.1-14.1c-0.2-0.2-0.4-0.5-0.8-0.3c0,0.2,0,0.5,0,0.8c0,7.3,0,14.5,0,21.8
		c0,1,0.3,1.3,1.2,1.3c6.1,0,12.1,0,18.1,0c5.3,0,10.6,0,15.9,0c0.6,0,1.1,0,1.1-0.9c0-7.5,0-15,0-22.8c-0.5,0.4-0.8,0.6-1.1,0.9
		c-4.9,4.4-9.7,8.9-14.6,13.3C33.3,39.9,33.1,39.9,31.3,38.3z"/>
</g>
<line class="st6" x1="16.2" y1="25.1" x2="7.6" y2="16.4"/>
<g>
	<path class="st6" d="M31.3,38.3c-5.4-4.7-10.7-9.4-16.1-14.1c-0.2-0.2-0.4-0.5-0.8-0.3V24l0.7,0.6L14.4,24c0,0.2,0,0.4,0,0.7
		c0,7.3,0,14.5,0,21.8c0,1,0.3,1.3,1.2,1.3c6.1,0,12.1,0,18.1,0c5.3,0,10.6,0,15.9,0c0.6,0,1.1,0,1.1-0.9c0-7.5,0-15,0-22.8
		c-0.5,0.4-0.8,0.6-1.1,0.9c-4.9,4.4-9.7,8.9-14.6,13.3C33.3,39.9,33.1,39.9,31.3,38.3z"/>
	<path class="st6" d="M32.5,31.6c0.6,0.5,0.9,0.2,1.3-0.2c4.3-3.8,8.6-7.5,12.9-11.3c0.9-0.8,1.8-1.7,3-2.7c-11.2,0-22.1,0-33.1,0
		c0.1,0.2,0.2,0.3,0.2,0.3C22,22.3,27.3,27,32.5,31.6z"/>
	<path class="st7" d="M14.4,23.9c0.4-0.2,0.6,0.1,0.8,0.3c5.4,4.7,10.7,9.4,16.1,14.1c1.8,1.6,2,1.6,3.7,0
		c4.9-4.4,9.7-8.9,14.6-13.3l6.4-6.4c0-0.5,0-1-0.1-1.5c-0.7-2.8-2.7-4.4-5.5-4.4c-5.9,0-11.7,0-17.6,0s-11.8,0-17.7,0
		c-3.5,0-5.8,2.5-5.8,6.4l0,0l5.1,4.9C14.4,24,14.4,23.9,14.4,23.9z M49.7,17.4c-1.2,1-2.1,1.9-3,2.7c-4.3,3.8-8.6,7.5-12.9,11.3
		c-0.4,0.4-0.7,0.7-1.3,0.2C27.3,27,22,22.3,16.8,17.7c0,0-0.1-0.1-0.2-0.3C27.6,17.4,38.5,17.4,49.7,17.4z"/>
</g>
<g>
	<path class="st8" d="M49.6,25c0.3-0.3,0.6-0.5,1.1-0.9c0,0.1,0,0.2,0,0.4l3.5-4.1L49.6,25z"/>
	<path class="st9" d="M56,19c0-0.1,0-0.3,0-0.4l-1.8,1.8l-3.5,4.1c0,7.7,0,15.1,0,22.4c0,0.9-0.5,0.9-1.1,0.9c-5.3,0-10.6,0-15.9,0
		c-6,0-12,0-18.1,0c-0.9,0-1.2-0.3-1.2-1.3c0-7.3,0-14.5,0-21.8c0-0.3,0-0.5,0-0.7l-5.1-4.9c0,9,0,18.1,0,27.1c0,4,2.3,6.5,5.8,6.5
		c2.8,0,5.6,0,8.4,0c8.9,0,17.8,0,26.7,0c3.7,0,5.9-3.1,5.9-6.4C55.9,37.1,56,28,56,19z"/>
</g>
</svg>
