<?xml version="1.0" encoding="utf-8"?>
<!-- Generator: Adobe Illustrator 24.0.0, SVG Export Plug-In . SVG Version: 6.00 Build 0)  -->
<svg version="1.1" id="Layer_1" xmlns="http://www.w3.org/2000/svg" xmlns:xlink="http://www.w3.org/1999/xlink" x="0px" y="0px"
	 viewBox="0 0 65.3 64.62" style="enable-background:new 0 0 65.3 64.62;" xml:space="preserve">
<style type="text/css">
	.st0{fill:#2E2E2F;}
	.st1{fill:#FFFFFF;}
</style>
<g>
	<path class="st0" d="M52.86,65.3H12.44C5.57,65.3,0,59.73,0,52.86V12.44C0,5.57,5.57,0,12.44,0h40.42C59.73,0,65.3,5.57,65.3,12.44
		v40.42C65.3,59.73,59.73,65.3,52.86,65.3z"/>
	<path class="st1" d="M55.99,18.95c0-0.63,0.03-1.27-0.13-1.9c-0.73-2.79-2.69-4.39-5.51-4.4c-5.87-0.02-11.74-0.01-17.6-0.01
		c-5.91,0-11.81-0.01-17.72,0.01c-3.54,0.01-5.75,2.46-5.76,6.37c-0.01,9.04-0.01,18.09,0,27.13c0,3.95,2.26,6.45,5.82,6.48
		c2.8,0.02,5.6,0,8.4,0c8.9,0,17.8-0.04,26.69,0.02c3.73,0.02,5.9-3.11,5.85-6.44C55.92,37.13,56,28.04,55.99,18.95z M49.71,17.43
		c-1.16,1.04-2.1,1.89-3.04,2.72c-4.3,3.77-8.61,7.53-12.92,11.31c-0.41,0.36-0.69,0.7-1.26,0.19c-5.23-4.67-10.49-9.3-15.73-13.94
		c-0.05-0.05-0.08-0.13-0.16-0.28C27.59,17.43,38.5,17.43,49.71,17.43z M49.61,47.78c-5.29-0.01-10.59-0.01-15.88-0.01
		c-6.02,0-12.05-0.02-18.07,0.02c-0.95,0.01-1.23-0.28-1.23-1.35c0.04-7.25,0.02-14.51,0.02-21.76c0-0.29,0-0.59,0-0.84
		c0.41-0.23,0.56,0.11,0.75,0.27c5.36,4.7,10.72,9.4,16.07,14.1c1.77,1.55,2.03,1.55,3.74-0.01c4.86-4.44,9.72-8.88,14.58-13.31
		c0.29-0.26,0.6-0.49,1.08-0.89c0,7.78-0.02,15.29,0.02,22.8C50.69,47.8,50.23,47.78,49.61,47.78z"/>
</g>
</svg>
