<?xml version="1.0" encoding="utf-8"?>
<!-- Generator: Adobe Illustrator 24.0.0, SVG Export Plug-In . SVG Version: 6.00 Build 0)  -->
<svg version="1.1" id="Layer_1" xmlns="http://www.w3.org/2000/svg" xmlns:xlink="http://www.w3.org/1999/xlink" x="0px" y="0px"
	 viewBox="0 0 65.3 64.62" style="enable-background:new 0 0 65.3 64.62;" xml:space="preserve">
<style type="text/css">
	.st0{fill:#2E2E2F;}
	.st1{fill:#FFFFFF;}
</style>
<g>
	<path class="st0" d="M32.2,0C33.1,0,33.99-0.01,34.89,0.08c1.58,0.15,3.15,0.39,4.71,0.76c1.78,0.42,3.51,0.99,5.19,1.72
		c2.98,1.29,5.71,2.98,8.18,5.09c1.59,1.36,3.04,2.86,4.34,4.5c1.17,1.47,2.2,3.04,3.1,4.7c1.16,2.14,2.07,4.37,2.73,6.72
		c0.41,1.44,0.71,2.91,0.92,4.4c0.26,1.85,0.35,3.7,0.29,5.57c-0.05,1.6-0.23,3.19-0.52,4.77c-0.42,2.27-1.06,4.47-1.94,6.6
		c-0.87,2.11-1.96,4.11-3.26,6c-1.85,2.7-4.07,5.06-6.63,7.08c-2.69,2.12-5.65,3.77-8.87,4.94c-1.94,0.71-3.94,1.22-5.98,1.54
		c-1.2,0.19-2.4,0.3-3.61,0.37c-0.72,0.04-1.44,0.07-2.16,0.04c-3.25-0.13-6.43-0.66-9.52-1.72c-3.07-1.06-5.92-2.53-8.54-4.45
		c-1.39-1.01-2.69-2.13-3.9-3.35c-1.32-1.34-2.52-2.78-3.6-4.33c-1.81-2.6-3.2-5.4-4.18-8.4c-0.6-1.82-1.03-3.67-1.3-5.57
		c-0.18-1.27-0.28-2.55-0.32-3.84c-0.05-1.72,0.05-3.43,0.28-5.14c0.29-2.16,0.79-4.28,1.51-6.34c0.77-2.22,1.76-4.33,2.99-6.34
		c1.2-1.96,2.59-3.77,4.18-5.44c1.87-1.97,3.96-3.68,6.26-5.11c2.9-1.81,6-3.12,9.32-3.94c1.75-0.43,3.52-0.71,5.32-0.84
		C30.64-0.01,31.42,0.02,32.2,0z"/>
	<path class="st1" d="M50.56,41.08c-0.15,1.23-0.3,2.38-0.44,3.54c-0.33,2.79-0.66,5.58-0.98,8.37c-0.06,0.52-0.05,0.53-0.59,0.52
		c-3.15-0.08-6.29-0.18-9.44-0.24c-1.42-0.03-2.84-0.02-4.26-0.02c-2.77,0-5.54,0.02-8.31,0c-3.95-0.03-7.89,0.16-11.83,0.26
		c-1,0.03-0.88,0.19-0.89-0.85c0-0.38,0.01-0.75,0-1.13c-0.01-0.31,0.12-0.43,0.41-0.48c0.92-0.16,1.83-0.34,2.74-0.52
		c0.48-0.09,0.95-0.21,1.4-0.41c0.75-0.33,1.19-0.89,1.25-1.73c0.12-1.66,0.11-3.32,0.14-4.98c0.09-5.18,0.1-10.35,0.07-15.53
		c-0.02-3.39-0.06-6.78-0.16-10.17c-0.07-2.34-0.78-2.64-2.48-3c-0.97-0.21-1.96-0.39-2.94-0.56c-0.3-0.05-0.46-0.15-0.44-0.51
		c0.04-0.53,0.02-1.06,0.01-1.6c-0.01-0.29,0.11-0.38,0.4-0.37c0.77,0.03,1.55,0.04,2.33,0.07c5.89,0.26,11.79,0.2,17.68,0.2
		c2.13,0,4.26,0.03,6.38-0.02c2.46-0.06,4.91-0.3,7.35-0.54c0.61-0.06,0.62-0.05,0.57,0.52c-0.26,3.11-0.45,6.23-0.59,9.35
		c-0.03,0.55-0.07,1.1-0.1,1.66c-0.01,0.25-0.1,0.35-0.36,0.34c-0.51-0.02-1.02-0.02-1.53,0c-0.28,0.01-0.38-0.11-0.44-0.37
		c-0.2-0.82-0.41-1.63-0.63-2.44c-0.34-1.31-0.72-2.6-1.4-3.79c-0.77-1.32-1.87-2.04-3.43-1.97c-0.02,0-0.04,0-0.07,0
		c-4.1,0-8.2,0-12.3,0c-0.26,0-0.53,0.01-0.79,0.05c-0.5,0.07-0.64,0.23-0.68,0.73c-0.01,0.13,0,0.27,0,0.4c0,4.81,0,9.62,0,14.43
		c0,0.09,0,0.18,0,0.27c0.02,0.47,0.03,0.5,0.49,0.5c1.53-0.01,3.06-0.02,4.59-0.05c1.37-0.03,2.75-0.05,4.11-0.28
		c0.24-0.04,0.48-0.09,0.71-0.15c0.61-0.18,1.03-0.57,1.28-1.17c0.27-0.66,0.41-1.36,0.58-2.04c0.19-0.75,0.38-1.5,0.53-2.26
		c0.07-0.33,0.22-0.44,0.54-0.42c0.55,0.02,1.11,0.01,1.66,0c0.25,0,0.36,0.08,0.35,0.34c-0.03,0.64-0.03,1.28-0.07,1.93
		c-0.27,3.96-0.24,7.92-0.08,11.89c0.04,0.93,0.02,0.93-0.88,0.93c-0.4,0-0.8-0.02-1.2,0c-0.31,0.02-0.42-0.11-0.48-0.4
		c-0.19-0.89-0.41-1.77-0.61-2.65c-0.04-0.17-0.08-0.34-0.13-0.51c-0.39-1.34-1.25-2.09-2.67-2.2c-2.1-0.16-4.21-0.15-6.31-0.19
		c-0.66-0.01-1.33,0.01-1.99,0c-0.28-0.01-0.41,0.1-0.4,0.38c0.01,0.13,0,0.27,0,0.4c0,4.03,0,8.07,0,12.1
		c0,0.24,0.02,0.49,0.04,0.73c0.16,1.98,1.37,2.71,2.86,2.97c0.33,0.06,0.66,0.1,0.99,0.1c3.37,0.02,6.74,0.06,10.11-0.03
		c0.4-0.01,0.8-0.06,1.19-0.13c2.33-0.36,3.77-1.82,4.7-3.87c0.72-1.59,1.43-3.19,2.11-4.81c0.2-0.47,0.45-0.64,0.94-0.59
		C49.58,41.11,50.04,41.08,50.56,41.08z"/>
</g>
</svg>
