<?xml version="1.0" encoding="utf-8"?>
<!-- Generator: Adobe Illustrator 24.0.0, SVG Export Plug-In . SVG Version: 6.00 Build 0)  -->
<svg version="1.1" id="Layer_1" xmlns="http://www.w3.org/2000/svg" xmlns:xlink="http://www.w3.org/1999/xlink" x="0px" y="0px"
	 viewBox="0 0 65.3 64.6" style="enable-background:new 0 0 65.3 64.6;" xml:space="preserve">
<style type="text/css">
	.st0{fill:#EC7122;}
	.st1{fill:#FFFFFF;}
</style>
<g>
	<path class="st0" d="M32.2,0c0.9,0,1.8,0,2.7,0.1c1.6,0.2,3.2,0.4,4.7,0.8c1.8,0.4,3.5,1,5.2,1.7c3,1.3,5.7,3,8.2,5.1
		c1.6,1.4,3,2.9,4.3,4.5c1.2,1.5,2.2,3,3.1,4.7c1.2,2.1,2.1,4.4,2.7,6.7c0.4,1.4,0.7,2.9,0.9,4.4c0.3,1.9,0.3,3.7,0.3,5.6
		c-0.1,1.6-0.2,3.2-0.5,4.8c-0.4,2.3-1.1,4.5-1.9,6.6c-0.9,2.1-2,4.1-3.3,6C56.8,53.6,54.6,56,52,58c-2.7,2.1-5.7,3.8-8.9,4.9
		c-1.9,0.7-3.9,1.2-6,1.5c-1.2,0.2-2.4,0.3-3.6,0.4c-0.7,0-1.4,0.1-2.2,0c-3.3-0.1-6.4-0.7-9.5-1.7c-3.1-1.1-5.9-2.5-8.5-4.5
		c-1.4-1-2.7-2.1-3.9-3.3C8.1,54,6.9,52.6,5.8,51c-1.8-2.6-3.2-5.4-4.2-8.4c-0.6-1.8-1-3.7-1.3-5.6c-0.2-1.3-0.3-2.5-0.3-3.8
		c-0.1-1.7,0-3.4,0.3-5.1c0.3-2.2,0.8-4.3,1.5-6.3c0.8-2.2,1.8-4.3,3-6.3C6,13.4,7.4,11.6,9,10c1.9-2,4-3.7,6.3-5.1
		c2.9-1.8,6-3.1,9.3-3.9c1.8-0.4,3.5-0.7,5.3-0.8C30.6,0,31.4,0,32.2,0z"/>
	<path class="st1" d="M50.6,41.1c-0.2,1.2-0.3,2.4-0.4,3.5c-0.3,2.8-0.7,5.6-1,8.4c-0.1,0.5,0,0.5-0.6,0.5c-3.2-0.1-6.3-0.2-9.4-0.2
		c-1.4,0-2.8,0-4.3,0c-2.8,0-5.5,0-8.3,0c-4,0-7.9,0.2-11.8,0.3c-1,0-0.9,0.2-0.9-0.8c0-0.4,0-0.8,0-1.1c0-0.3,0.1-0.4,0.4-0.5
		c0.9-0.2,1.8-0.3,2.7-0.5c0.5-0.1,1-0.2,1.4-0.4c0.8-0.3,1.2-0.9,1.3-1.7c0.1-1.7,0.1-3.3,0.1-5c0.1-5.2,0.1-10.4,0.1-15.5
		c0-3.4-0.1-6.8-0.2-10.2c-0.1-2.3-0.8-2.6-2.5-3c-1-0.2-2-0.4-2.9-0.6c-0.3-0.1-0.5-0.1-0.4-0.5c0-0.5,0-1.1,0-1.6
		c0-0.3,0.1-0.4,0.4-0.4c0.8,0,1.6,0,2.3,0.1c5.9,0.3,11.8,0.2,17.7,0.2c2.1,0,4.3,0,6.4,0c2.5-0.1,4.9-0.3,7.3-0.5
		c0.6-0.1,0.6-0.1,0.6,0.5c-0.3,3.1-0.5,6.2-0.6,9.3c0,0.5-0.1,1.1-0.1,1.7c0,0.3-0.1,0.4-0.4,0.3c-0.5,0-1,0-1.5,0
		c-0.3,0-0.4-0.1-0.4-0.4c-0.2-0.8-0.4-1.6-0.6-2.4c-0.3-1.3-0.7-2.6-1.4-3.8c-0.8-1.3-1.9-2-3.4-2c0,0,0,0-0.1,0
		c-4.1,0-8.2,0-12.3,0c-0.3,0-0.5,0-0.8,0.1c-0.5,0.1-0.6,0.2-0.7,0.7c0,0.1,0,0.3,0,0.4c0,4.8,0,9.6,0,14.4c0,0.1,0,0.2,0,0.3
		c0,0.5,0,0.5,0.5,0.5c1.5,0,3.1,0,4.6,0c1.4,0,2.7,0,4.1-0.3c0.2,0,0.5-0.1,0.7-0.1c0.6-0.2,1-0.6,1.3-1.2c0.3-0.7,0.4-1.4,0.6-2
		c0.2-0.8,0.4-1.5,0.5-2.3c0.1-0.3,0.2-0.4,0.5-0.4c0.5,0,1.1,0,1.7,0c0.3,0,0.4,0.1,0.3,0.3c0,0.6,0,1.3-0.1,1.9
		c-0.3,4-0.2,7.9-0.1,11.9c0,0.9,0,0.9-0.9,0.9c-0.4,0-0.8,0-1.2,0c-0.3,0-0.4-0.1-0.5-0.4c-0.2-0.9-0.4-1.8-0.6-2.7
		c0-0.2-0.1-0.3-0.1-0.5c-0.4-1.3-1.3-2.1-2.7-2.2c-2.1-0.2-4.2-0.2-6.3-0.2c-0.7,0-1.3,0-2,0c-0.3,0-0.4,0.1-0.4,0.4
		c0,0.1,0,0.3,0,0.4c0,4,0,8.1,0,12.1c0,0.2,0,0.5,0,0.7c0.2,2,1.4,2.7,2.9,3c0.3,0.1,0.7,0.1,1,0.1c3.4,0,6.7,0.1,10.1,0
		c0.4,0,0.8-0.1,1.2-0.1c2.3-0.4,3.8-1.8,4.7-3.9c0.7-1.6,1.4-3.2,2.1-4.8c0.2-0.5,0.5-0.6,0.9-0.6C49.6,41.1,50,41.1,50.6,41.1z"/>
</g>
</svg>
