<?xml version="1.0" encoding="utf-8"?>
<!-- Generator: Adobe Illustrator 24.0.0, SVG Export Plug-In . SVG Version: 6.00 Build 0)  -->
<svg version="1.1" id="Layer_1" xmlns="http://www.w3.org/2000/svg" xmlns:xlink="http://www.w3.org/1999/xlink" x="0px" y="0px"
	 viewBox="0 0 65.3 64.62" style="enable-background:new 0 0 65.3 64.62;" xml:space="preserve">
<style type="text/css">
	.st0{fill:#2E2E2F;}
	.st1{fill:#FFFFFF;}
</style>
<g>
	<path class="st0" d="M52.86,65.3H12.44C5.57,65.3,0,59.73,0,52.86V12.44C0,5.57,5.57,0,12.44,0h40.42C59.73,0,65.3,5.57,65.3,12.44
		v40.42C65.3,59.73,59.73,65.3,52.86,65.3z"/>
	<path class="st1" d="M43.5,35.73c-0.1,0.36-0.39,0.28-0.64,0.28c-2.25,0.01-4.51,0.02-6.76,0.03c-0.16,0.09-0.35,0.1-0.48,0.24
		c-0.01,0.26-0.03,0.53-0.03,0.79c0,7.18,0,14.36,0,21.54c0,0.24-0.02,0.49-0.03,0.73c-0.17,0.12-0.36,0.06-0.53,0.06
		c-2.5,0-5,0.01-7.5-0.01c-0.42,0-0.62,0.07-1.13-0.05l-0.07-0.02c-0.22-0.18-0.22-0.42-0.22-0.62c-0.01-7.26-0.01-14.53-0.01-21.79
		c0-0.22,0.02-0.45-0.02-0.67c-0.2-0.2-0.46-0.12-0.7-0.12c-2.25-0.02-4.5,0.02-6.75-0.03c-0.06,0-0.12-0.03-0.17-0.05
		c-0.04-0.02-0.08-0.05-0.11-0.07c-0.15-0.39-0.06-0.8-0.06-1.2c-0.01-2.46,0.01-4.92-0.01-7.38c0-0.4,0.11-0.55,0.5-0.55
		c2.3,0.02,4.6-0.06,6.89,0.05c0.46,0.02,0.44-0.19,0.44-0.5c0-2.12-0.02-4.23,0.01-6.35c0.01-0.91,0.01-1.83,0.3-2.71
		c0.29-1.08,0.55-2.16,1.05-3.17c1.67-3.42,4.5-5.23,8.17-5.75c2.98-0.42,5.97-0.1,8.95,0.13c0.26,0.02,0.35,0.12,0.34,0.38
		c-0.01,2.48-0.01,4.97,0,7.45c0,0.35-0.18,0.33-0.42,0.33c-1.4,0-2.81,0-4.21,0c-0.65,0-1.3,0.05-1.94,0.19
		c-1.44,0.31-2.34,1.15-2.6,2.63c-0.09,2.19-0.06,4.38-0.04,6.57c0.01,0.69,0.05,0.75,0.77,0.75c2.42,0,4.83,0,7.25,0
		c0.26,0,0.53-0.06,0.77,0.1c0.17,0.72-0.72,7.3-0.91,8.58C43.56,35.59,43.56,35.67,43.5,35.73z"/>
</g>
</svg>
