<?xml version="1.0" encoding="utf-8"?>
<!-- Generator: Adobe Illustrator 24.0.0, SVG Export Plug-In . SVG Version: 6.00 Build 0)  -->
<svg version="1.1" id="Layer_1" xmlns="http://www.w3.org/2000/svg" xmlns:xlink="http://www.w3.org/1999/xlink" x="0px" y="0px"
	 viewBox="0 0 65.3 64.6" style="enable-background:new 0 0 65.3 64.6;" xml:space="preserve">
<style type="text/css">
	.st0{fill:#224696;}
	.st1{fill:#FFFFFF;}
</style>
<g>
	<path class="st0" d="M52.9,65.3H12.4C5.6,65.3,0,59.7,0,52.9V12.4C0,5.6,5.6,0,12.4,0h40.4c6.9,0,12.4,5.6,12.4,12.4v40.4
		C65.3,59.7,59.7,65.3,52.9,65.3z"/>
	<path class="st1" d="M43.5,35.7c-0.1,0.4-0.4,0.3-0.6,0.3c-2.3,0-4.5,0-6.8,0c-0.2,0.1-0.3,0.1-0.5,0.2c0,0.3,0,0.5,0,0.8
		c0,7.2,0,14.4,0,21.5c0,0.2,0,0.5,0,0.7c-0.2,0.1-0.4,0.1-0.5,0.1c-2.5,0-5,0-7.5,0c-0.4,0-0.6,0.1-1.1,0l-0.1,0
		c-0.2-0.2-0.2-0.4-0.2-0.6c0-7.3,0-14.5,0-21.8c0-0.2,0-0.5,0-0.7c-0.2-0.2-0.5-0.1-0.7-0.1c-2.3,0-4.5,0-6.8,0c-0.1,0-0.1,0-0.2,0
		c0,0-0.1,0-0.1-0.1c-0.1-0.4-0.1-0.8-0.1-1.2c0-2.5,0-4.9,0-7.4c0-0.4,0.1-0.5,0.5-0.5c2.3,0,4.6-0.1,6.9,0c0.5,0,0.4-0.2,0.4-0.5
		c0-2.1,0-4.2,0-6.4c0-0.9,0-1.8,0.3-2.7c0.3-1.1,0.5-2.2,1-3.2c1.7-3.4,4.5-5.2,8.2-5.8c3-0.4,6-0.1,9,0.1c0.3,0,0.3,0.1,0.3,0.4
		c0,2.5,0,5,0,7.4c0,0.4-0.2,0.3-0.4,0.3c-1.4,0-2.8,0-4.2,0c-0.7,0-1.3,0-1.9,0.2c-1.4,0.3-2.3,1.1-2.6,2.6c-0.1,2.2-0.1,4.4,0,6.6
		c0,0.7,0,0.8,0.8,0.8c2.4,0,4.8,0,7.3,0c0.3,0,0.5-0.1,0.8,0.1c0.2,0.7-0.7,7.3-0.9,8.6C43.6,35.6,43.6,35.7,43.5,35.7z"/>
</g>
</svg>
