<?xml version="1.0" encoding="utf-8"?>
<!-- Generator: Adobe Illustrator 24.0.0, SVG Export Plug-In . SVG Version: 6.00 Build 0)  -->
<svg version="1.1" id="Layer_1" xmlns="http://www.w3.org/2000/svg" xmlns:xlink="http://www.w3.org/1999/xlink" x="0px" y="0px"
	 viewBox="0 0 65.3 64.6" style="enable-background:new 0 0 65.3 64.6;" xml:space="preserve">
<style type="text/css">
	.st0{fill:#FFFFFF;}
	.st1{fill:#F34F29;}
</style>
<g>
	<path class="st0" d="M40.8,61.2c0-2.8,0-5.5,0-8.3c0-1.7-0.2-3.3-1.1-4.8c-0.3-0.5-0.6-0.9-1.2-1.5c1.9-0.2,3.6-0.5,5.2-1
		c5.6-1.7,8.6-5.6,9.4-11.3c0.4-2.6,0.5-5.2-0.4-7.7c-0.5-1.5-1.3-2.9-2.3-4.1c-0.3-0.3-0.3-0.6-0.2-1c0.8-2.6,0.5-5.1-0.3-7.6
		c-0.1-0.4-0.4-0.5-0.8-0.5c-1.6,0-3,0.5-4.5,1.2c-1.2,0.6-2.4,1.2-3.5,2c-0.3,0.2-0.6,0.2-0.9,0.1c-5.1-1.3-10.2-1.3-15.3,0
		c-0.4,0.1-0.7,0-1.1-0.2c-1.9-1.2-3.8-2.4-6.1-2.8c-2.8-0.6-2.4-0.5-3,1.8c-0.6,2.1-0.5,4.1,0.2,6.2c0.1,0.3,0.1,0.5-0.1,0.7
		c-3,3.4-3.5,7.4-2.9,11.6c0.4,2.8,1.2,5.4,3.1,7.6c2.1,2.5,4.9,3.8,8,4.5c1.1,0.3,2.3,0.4,3.5,0.7c-1.1,1.2-1.7,2.5-1.9,4.1
		c0,0.3-0.3,0.3-0.5,0.4c-3.7,1.5-6.9,0.5-9-2.8c-1.1-1.7-2.5-2.9-4.5-3.3c-0.5-0.1-1-0.1-1.5,0.1c-0.6,0.2-0.6,0.5-0.3,0.9
		c0.3,0.3,0.5,0.6,0.9,0.8c1.8,1,2.8,2.6,3.6,4.4c1.3,3.1,3.7,4.4,6.8,4.6c1.3,0.1,2.6,0,3.9-0.3c0.4-0.1,0.5,0,0.5,0.4
		c0,1.7,0,3.5,0,5.2c0,1.3-0.7,2-1.8,1.9c3.1,1,6.4,1.5,9.9,1.5c3.4,0,6.7-0.5,9.9-1.5C41.4,63.2,40.8,62.5,40.8,61.2z"/>
	<path class="st1" d="M62.4,19C56,5.1,40.8-2.5,25.6,0.7C10.9,3.9,0.4,16.7,0,31.3c0,0.1,0,0.1,0,0.2c0,0.3,0,0.5,0,0.8
		c0,1.2,0.1,2.4,0.2,3.7c0.9,7.9,4.4,14.7,10.2,20.1c3.4,3.1,7.3,5.4,11.6,6.9c0.3,0.1,0.5,0.1,0.7,0.1c1.1,0.1,1.8-0.6,1.8-1.9
		c0-1.7,0-3.5,0-5.2c0-0.4-0.1-0.5-0.5-0.4c-1.3,0.3-2.6,0.4-3.9,0.3c-3.1-0.2-5.6-1.5-6.8-4.6c-0.7-1.8-1.9-3.4-3.6-4.4
		c-0.3-0.2-0.6-0.5-0.9-0.8c-0.4-0.4-0.3-0.7,0.3-0.9c0.5-0.2,1-0.2,1.5-0.1c2,0.4,3.4,1.6,4.5,3.3c2.1,3.3,5.4,4.4,9,2.8
		c0.2-0.1,0.4-0.1,0.5-0.4c0.2-1.5,0.8-2.9,1.9-4.1c-1.2-0.2-2.4-0.4-3.5-0.7c-3.1-0.7-5.9-2-8-4.5c-1.9-2.2-2.7-4.8-3.1-7.6
		c-0.6-4.3-0.1-8.2,2.9-11.6c0.2-0.2,0.2-0.4,0.1-0.7c-0.7-2-0.7-4.1-0.2-6.2c0.6-2.4,0.2-2.4,3-1.8c2.2,0.5,4.2,1.6,6.1,2.8
		c0.3,0.2,0.6,0.3,1.1,0.2c5.1-1.3,10.2-1.3,15.3,0c0.4,0.1,0.6,0.1,0.9-0.1c1.1-0.7,2.3-1.4,3.5-2c1.4-0.6,2.9-1.1,4.5-1.2
		c0.4,0,0.6,0.1,0.8,0.5c0.9,2.5,1.1,5,0.3,7.6c-0.1,0.4-0.1,0.7,0.2,1c1.1,1.2,1.8,2.6,2.3,4.1c0.8,2.5,0.7,5.1,0.4,7.7
		c-0.8,5.7-3.8,9.5-9.4,11.3c-1.7,0.5-3.3,0.8-5.2,1c0.5,0.5,0.9,1,1.2,1.5c0.8,1.5,1.1,3.1,1.1,4.8c0,2.8,0,5.5,0,8.3
		c0,1.3,0.6,2,1.7,2c0.3,0,0.5-0.1,0.8-0.2c13.6-4.5,22-17.3,22-30.8C65.3,27.7,64.4,23.3,62.4,19z"/>
</g>
</svg>
