<?xml version="1.0" encoding="utf-8"?>
<!-- Generator: Adobe Illustrator 24.0.0, SVG Export Plug-In . SVG Version: 6.00 Build 0)  -->
<svg version="1.1" id="Layer_1" xmlns="http://www.w3.org/2000/svg" xmlns:xlink="http://www.w3.org/1999/xlink" x="0px" y="0px"
	 viewBox="0 0 65.3 64.62" style="enable-background:new 0 0 65.3 64.62;" xml:space="preserve">
<style type="text/css">
	.st0{fill:#FFFFFF;}
	.st1{fill:#2E2E2F;}
</style>
<g>
	<path class="st0" d="M40.77,61.16c0-2.76,0.02-5.53,0.03-8.29c0.01-1.67-0.24-3.29-1.06-4.78c-0.28-0.5-0.62-0.94-1.17-1.47
		c1.88-0.23,3.57-0.52,5.22-1.03c5.56-1.73,8.61-5.56,9.42-11.26c0.37-2.6,0.47-5.2-0.36-7.74c-0.5-1.54-1.28-2.93-2.34-4.14
		c-0.28-0.32-0.35-0.59-0.22-1.02c0.8-2.56,0.54-5.09-0.33-7.59c-0.14-0.39-0.36-0.51-0.75-0.5c-1.58,0.02-3.03,0.54-4.45,1.17
		c-1.22,0.55-2.39,1.21-3.5,1.96c-0.3,0.2-0.56,0.24-0.92,0.15c-5.1-1.27-10.21-1.29-15.32,0c-0.44,0.11-0.72,0.01-1.06-0.21
		c-1.89-1.22-3.83-2.36-6.06-2.81c-2.76-0.57-2.37-0.51-3,1.84c-0.55,2.06-0.51,4.14,0.16,6.18c0.09,0.28,0.06,0.46-0.14,0.68
		c-2.96,3.37-3.47,7.35-2.9,11.61c0.38,2.81,1.21,5.43,3.06,7.64c2.1,2.5,4.91,3.78,8.01,4.5c1.13,0.26,2.27,0.42,3.51,0.65
		c-1.11,1.17-1.7,2.54-1.94,4.06c-0.05,0.31-0.29,0.33-0.49,0.42c-3.67,1.54-6.91,0.52-9.04-2.83c-1.06-1.67-2.47-2.9-4.47-3.31
		c-0.51-0.1-1.02-0.1-1.53,0.07c-0.55,0.18-0.64,0.51-0.28,0.92c0.25,0.29,0.54,0.57,0.87,0.77c1.75,1.04,2.85,2.61,3.59,4.43
		c1.26,3.07,3.68,4.37,6.82,4.61c1.29,0.1,2.58,0.03,3.85-0.27c0.4-0.1,0.54,0,0.53,0.44c-0.01,1.73,0.01,3.46,0.03,5.19
		c0.01,1.31-0.67,2.02-1.78,1.93c3.11,0.98,6.42,1.52,9.86,1.52c3.43,0,6.74-0.53,9.85-1.52C41.41,63.17,40.76,62.49,40.77,61.16z"
		/>
	<path class="st1" d="M62.41,19.02C56.04,5.06,40.83-2.5,25.64,0.75c-14.7,3.14-25.19,16-25.63,30.55c0,0.07,0,0.15-0.01,0.22
		C0,31.78,0,32.04,0,32.31c0,1.21,0.07,2.44,0.21,3.66c0.94,7.94,4.39,14.65,10.24,20.09c3.37,3.13,7.25,5.42,11.61,6.89
		c0.26,0.09,0.49,0.13,0.72,0.14c1.1,0.09,1.78-0.61,1.78-1.93c-0.01-1.73-0.04-3.46-0.03-5.19c0-0.43-0.13-0.53-0.53-0.44
		c-1.27,0.3-2.56,0.37-3.85,0.27c-3.14-0.24-5.56-1.53-6.82-4.61c-0.74-1.82-1.85-3.39-3.59-4.43c-0.33-0.19-0.62-0.48-0.87-0.77
		c-0.36-0.42-0.27-0.74,0.28-0.92c0.51-0.17,1.02-0.18,1.53-0.07c2,0.41,3.4,1.64,4.47,3.31c2.13,3.35,5.37,4.36,9.04,2.83
		c0.2-0.08,0.44-0.11,0.49-0.42c0.23-1.52,0.83-2.89,1.94-4.06c-1.24-0.23-2.38-0.39-3.51-0.65c-3.1-0.72-5.91-1.99-8.01-4.5
		c-1.85-2.21-2.69-4.83-3.06-7.64c-0.57-4.26-0.06-8.24,2.9-11.61c0.19-0.22,0.23-0.4,0.14-0.68c-0.67-2.04-0.71-4.12-0.16-6.18
		c0.62-2.35,0.23-2.4,3-1.84c2.22,0.46,4.17,1.6,6.06,2.81c0.34,0.22,0.62,0.32,1.06,0.21c5.1-1.29,10.21-1.27,15.32,0
		c0.36,0.09,0.62,0.06,0.92-0.15c1.11-0.75,2.28-1.41,3.5-1.96c1.42-0.64,2.87-1.15,4.45-1.17c0.38,0,0.61,0.11,0.75,0.5
		c0.88,2.5,1.14,5.02,0.33,7.59c-0.13,0.43-0.07,0.69,0.22,1.02c1.06,1.22,1.84,2.61,2.34,4.14c0.83,2.54,0.73,5.14,0.36,7.74
		c-0.81,5.7-3.85,9.54-9.42,11.26c-1.65,0.51-3.34,0.8-5.22,1.03c0.54,0.53,0.89,0.97,1.17,1.47c0.82,1.49,1.06,3.1,1.06,4.78
		c-0.01,2.76-0.02,5.53-0.03,8.29c0,1.33,0.64,2.02,1.73,1.95c0.25-0.02,0.52-0.06,0.81-0.16c13.6-4.52,22.04-17.34,21.99-30.8
		C65.28,27.75,64.36,23.28,62.41,19.02z"/>
</g>
</svg>
