<svg id="Layer_1" data-name="Layer 1" xmlns="http://www.w3.org/2000/svg" viewBox="0 0 65.3 65.3"><defs><style>.cls-1{fill:#2e2e2f;}.cls-2{fill:#fff;}</style></defs><title>line-logo</title><rect class="cls-1" width="65.3" height="65.3" rx="12.44"/><path class="cls-2" d="M58.44,28.85A18.55,18.55,0,0,1,53.77,41a58.4,58.4,0,0,1-8.1,7.13A86.86,86.86,0,0,1,34.8,55.47a10.89,10.89,0,0,1-3,1.25c-.62.13-.95-.09-1.06-.73a5.58,5.58,0,0,1,.19-2.11c.09-.49.21-1,.29-1.47a2.22,2.22,0,0,0-1.69-2.68c-1.16-.37-2.39-.39-3.57-.66a27,27,0,0,1-13.39-7A18.35,18.35,0,0,1,7,31.38a16.46,16.46,0,0,1,3.11-12.14A24.24,24.24,0,0,1,23,10.11c9.09-2.86,17.81-2,26,3.06a19.36,19.36,0,0,1,8.83,11.26A20,20,0,0,1,58.44,28.85Z"/><path class="cls-1" d="M33,33.75c0,1.29-.53,2-1.47,2s-1.49-.72-1.49-2q0-4.51,0-9c0-1.1.42-1.65,1.29-1.81a1.47,1.47,0,0,1,1.5.75l4.3,5.72c.08.1.11.25.35.28,0-1.54,0-3.07,0-4.6a5.17,5.17,0,0,1,.07-1,1.42,1.42,0,0,1,2.8,0,3.23,3.23,0,0,1,.08.68c0,3.06,0,6.11,0,9.17a1.62,1.62,0,0,1-.8,1.63c-.76.38-1.41.18-2.06-.68q-1.73-2.28-3.43-4.58L33,28.79Z"/><path class="cls-1" d="M42.06,29.34c0-1.52,0-3,0-4.55,0-1.33.55-1.88,1.86-1.89s2.9,0,4.34,0a1.52,1.52,0,0,1,1.61,1,1.46,1.46,0,0,1-.54,1.64,1.75,1.75,0,0,1-1.11.29c-.9,0-1.79,0-2.69,0-.37,0-.51.07-.52.49,0,1.52-.06,1.51,1.47,1.53a10.19,10.19,0,0,1,2.34.08,1.43,1.43,0,0,1,0,2.79,16.69,16.69,0,0,1-3.16.07c-.51,0-.67.12-.66.64,0,1.37,0,1.36,1.36,1.38a11.32,11.32,0,0,1,2.4.08A1.39,1.39,0,0,1,50,34.28a1.45,1.45,0,0,1-1.21,1.45,6.32,6.32,0,0,1-.75.06H44.14c-1.58,0-2.08-.5-2.08-2.11Z"/><path class="cls-1" d="M16.14,29.32c0-1.56,0-3.12,0-4.68,0-1.26.89-2,1.95-1.64.64.2,1,.82,1,1.77v6.76c0,1.29,0,1.29,1.28,1.29.78,0,1.57,0,2.34,0a1.45,1.45,0,0,1,1.45,1.51,1.49,1.49,0,0,1-1.56,1.42c-1.29,0-2.57,0-3.86,0h-.83A1.59,1.59,0,0,1,16.14,34C16.12,32.45,16.14,30.88,16.14,29.32Z"/><path class="cls-1" d="M28.2,29.35c0,1.54,0,3.08,0,4.62,0,1-.42,1.6-1.2,1.75a1.37,1.37,0,0,1-1.66-1.06,3.07,3.07,0,0,1-.1-.74c0-3.06,0-6.11,0-9.17,0-1.33.8-2.05,1.91-1.75.67.18,1,.78,1.05,1.73C28.21,26.27,28.2,27.81,28.2,29.35Z"/></svg>