<?xml version="1.0" encoding="utf-8"?>
<!-- Generator: Adobe Illustrator 24.0.0, SVG Export Plug-In . SVG Version: 6.00 Build 0)  -->
<svg version="1.1" id="Layer_1" xmlns="http://www.w3.org/2000/svg" xmlns:xlink="http://www.w3.org/1999/xlink" x="0px" y="0px"
	 viewBox="0 0 65.3 64.62" style="enable-background:new 0 0 65.3 64.62;" xml:space="preserve">
<style type="text/css">
	.st0{fill:#2E2E2F;}
	.st1{fill:#FFFFFF;}
</style>
<g>
	<path class="st0" d="M52.86,65.3H12.44C5.57,65.3,0,59.73,0,52.86V12.44C0,5.57,5.57,0,12.44,0h40.42C59.73,0,65.3,5.57,65.3,12.44
		v40.42C65.3,59.73,59.73,65.3,52.86,65.3z"/>
	<g>
		<path class="st1" d="M34.75,28.87c0.47-0.78,1-1.49,1.66-2.12c1.52-1.47,3.35-2.35,5.41-2.71c2.31-0.4,4.62-0.24,6.86,0.45
			c2.82,0.87,4.71,2.76,5.75,5.52c0.6,1.6,0.91,3.26,1.05,4.95c0.34,4.21,0.11,8.43,0.16,12.65c0.03,2.61,0,5.21,0.02,7.82
			c0,0.41-0.12,0.49-0.5,0.49c-2.92-0.02-5.85-0.02-8.77,0c-0.41,0-0.49-0.13-0.49-0.51c0.01-5.28,0.02-10.57,0-15.85
			c0-1.2-0.08-2.4-0.38-3.58c-0.6-2.34-2.14-3.56-4.55-3.58c-1.34-0.01-2.62,0.21-3.71,1.06c-1.15,0.89-1.65,2.15-1.94,3.51
			c-0.28,1.29-0.3,2.6-0.3,3.91c-0.02,4.84-0.01,9.69,0,14.53c0,0.4-0.1,0.5-0.5,0.5c-2.91-0.02-5.82-0.02-8.73,0
			c-0.38,0-0.48-0.1-0.48-0.48c0.01-10.13,0.01-20.25,0-30.38c0-0.34,0.06-0.47,0.44-0.47c2.83,0.02,5.65,0.02,8.48,0
			c0.35,0,0.43,0.11,0.42,0.44c-0.02,1.14-0.01,2.28-0.01,3.42c0,0.13,0,0.26,0,0.39C34.68,28.85,34.72,28.86,34.75,28.87z"/>
		<path class="st1" d="M9.45,40.25c0-5.06,0-10.12-0.01-15.19c0-0.39,0.11-0.47,0.48-0.47c2.95,0.01,5.9,0.01,8.85,0
			c0.35,0,0.43,0.1,0.43,0.44c-0.01,10.15-0.01,20.3,0,30.46c0,0.35-0.11,0.43-0.44,0.43c-2.96-0.01-5.93-0.01-8.89,0
			c-0.35,0-0.42-0.11-0.42-0.44C9.45,50.4,9.45,45.33,9.45,40.25z"/>
		<path class="st1" d="M14.4,9.09c3.05,0,5.62,2.49,5.56,5.69c-0.06,3.31-2.58,5.45-5.31,5.57c-3.67,0.16-6.1-2.72-5.97-5.9
			C8.8,11.5,11.27,9.02,14.4,9.09z"/>
	</g>
</g>
</svg>
