<?xml version="1.0" encoding="utf-8"?>
<!-- Generator: Adobe Illustrator 24.0.0, SVG Export Plug-In . SVG Version: 6.00 Build 0)  -->
<svg version="1.1" id="Layer_1" xmlns="http://www.w3.org/2000/svg" xmlns:xlink="http://www.w3.org/1999/xlink" x="0px" y="0px"
	 viewBox="0 0 65.3 64.6" style="enable-background:new 0 0 65.3 64.6;" xml:space="preserve">
<style type="text/css">
	.st0{fill:#047CB7;}
	.st1{fill:#FFFFFF;}
</style>
<g>
	<path class="st0" d="M52.9,65.3H12.4C5.6,65.3,0,59.7,0,52.9V12.4C0,5.6,5.6,0,12.4,0h40.4c6.9,0,12.4,5.6,12.4,12.4v40.4
		C65.3,59.7,59.7,65.3,52.9,65.3z"/>
	<g>
		<path class="st1" d="M34.8,28.9c0.5-0.8,1-1.5,1.7-2.1c1.5-1.5,3.3-2.4,5.4-2.7c2.3-0.4,4.6-0.2,6.9,0.5c2.8,0.9,4.7,2.8,5.8,5.5
			c0.6,1.6,0.9,3.3,1,5c0.3,4.2,0.1,8.4,0.2,12.6c0,2.6,0,5.2,0,7.8c0,0.4-0.1,0.5-0.5,0.5c-2.9,0-5.8,0-8.8,0
			c-0.4,0-0.5-0.1-0.5-0.5c0-5.3,0-10.6,0-15.8c0-1.2-0.1-2.4-0.4-3.6c-0.6-2.3-2.1-3.6-4.5-3.6c-1.3,0-2.6,0.2-3.7,1.1
			c-1.2,0.9-1.7,2.2-1.9,3.5C35,38.3,35,39.6,35,40.9c0,4.8,0,9.7,0,14.5c0,0.4-0.1,0.5-0.5,0.5c-2.9,0-5.8,0-8.7,0
			c-0.4,0-0.5-0.1-0.5-0.5c0-10.1,0-20.3,0-30.4c0-0.3,0.1-0.5,0.4-0.5c2.8,0,5.6,0,8.5,0c0.3,0,0.4,0.1,0.4,0.4c0,1.1,0,2.3,0,3.4
			c0,0.1,0,0.3,0,0.4C34.7,28.8,34.7,28.9,34.8,28.9z"/>
		<path class="st1" d="M9.4,40.2c0-5.1,0-10.1,0-15.2c0-0.4,0.1-0.5,0.5-0.5c2.9,0,5.9,0,8.9,0c0.4,0,0.4,0.1,0.4,0.4
			c0,10.1,0,20.3,0,30.5c0,0.3-0.1,0.4-0.4,0.4c-3,0-5.9,0-8.9,0c-0.4,0-0.4-0.1-0.4-0.4C9.4,50.4,9.4,45.3,9.4,40.2z"/>
		<path class="st1" d="M14.4,9.1c3,0,5.6,2.5,5.6,5.7c-0.1,3.3-2.6,5.4-5.3,5.6c-3.7,0.2-6.1-2.7-6-5.9C8.8,11.5,11.3,9,14.4,9.1z"
			/>
	</g>
</g>
</svg>
