<?xml version="1.0" encoding="utf-8"?>
<!-- Generator: Adobe Illustrator 24.0.0, SVG Export Plug-In . SVG Version: 6.00 Build 0)  -->
<svg version="1.1" id="Layer_1" xmlns="http://www.w3.org/2000/svg" xmlns:xlink="http://www.w3.org/1999/xlink" x="0px" y="0px"
	 viewBox="0 0 172.1 144.7" style="enable-background:new 0 0 172.1 144.7;" xml:space="preserve">
<style type="text/css">
	.st0{fill:#26292C;}
</style>
<g>
	<path class="st0" d="M86.6,92L77,102.1c-0.7,0.6-1.9,0.1-1.9-0.8l-2.5-15.8c0-0.8,0.8-1.4,1.6-1l12.1,5.7
		C87.1,90.5,87.3,91.5,86.6,92z"/>
	<path class="st0" d="M112,98.4l-25.6-13c-0.5-0.3-0.6-0.9-0.3-1.3L113.3,52c0.4-0.5-0.2-1.1-0.7-0.7L74.6,79
		c-0.2,0.2-0.6,0.2-0.8,0.1l-23-9.2c-0.7-0.3-0.7-1.3,0-1.6l69.9-26c0.6-0.2,1.3,0.3,1.1,1l-8.6,54.5
		C113.1,98.3,112.5,98.6,112,98.4z"/>
</g>
</svg>
